<svg xmlns="http://www.w3.org/2000/svg" xmlns:xlink="http://www.w3.org/1999/xlink" viewBox="0,0,256,256" width="48px" height="48px" fill-rule="nonzero"><g fill="none" fill-rule="nonzero" stroke="none" stroke-width="1" stroke-linecap="butt" stroke-linejoin="miter" stroke-miterlimit="10" stroke-dasharray="" stroke-dashoffset="0" font-family="none" font-weight="none" font-size="none" text-anchor="none" style="mix-blend-mode: normal"><g transform="scale(5.33333,5.33333)"><path d="M42,37c0,2.762 -2.238,5 -5,5h-26c-2.761,0 -5,-2.238 -5,-5v-26c0,-2.762 2.239,-5 5,-5h26c2.762,0 5,2.238 5,5z" fill="#669933"></path><path d="M32,34.891c0,0.095 -0.037,0.184 -0.109,0.247c-0.088,0.077 -2.168,1.862 -6.944,1.862c-5.726,0 -5.893,-6.409 -5.893,-7.141l-0.054,-7.859h-2.672c-0.182,0 -0.328,-0.147 -0.328,-0.329v-3.101c0,-0.135 0.083,-0.259 0.208,-0.309c0.052,-0.02 5.171,-2.083 5.171,-6.933c0,-0.183 0.146,-0.329 0.327,-0.329h2.966c0.182,0.001 0.328,0.147 0.328,0.33v6.671h5.67c0.182,0 0.33,0.146 0.33,0.328v3.345c0,0.183 -0.148,0.327 -0.33,0.327h-5.67v7.711c0,0.101 0.316,2.519 2.76,2.519c2.023,0 3.721,-1.044 3.74,-1.055c0.1,-0.064 0.227,-0.066 0.333,-0.009c0.103,0.057 0.167,0.168 0.167,0.289v3.436z" fill="#ffffff"></path></g></g></svg>