<?xml version="1.0" encoding="UTF-8"?>
<svg id="Calque_2" data-name="Calque 2" xmlns="http://www.w3.org/2000/svg" viewBox="0 0 81.12 31.03">
  <defs>
    <style>
      .cls-1 {
        fill: #366732;
      }

      .cls-2 {
        fill: #7ab33c;
      }

      .cls-3 {
        fill: #1d1d1b;
      }
    </style>
  </defs>
  <g id="Calque_1-2" data-name="Calque 1">
    <g>
      <path class="cls-2" d="m68.51,15.67c-9.62-1.74-12.49.72-12.49.72v-2.33h-4.92v5c-.75.64-1.81,1.16-3.19,1.61v-7.67h-6.2v4.75h-5.14v6.67c-.62.29-1.37.36-2.25.36v-9.19h-5.78v7.36h-4.22v-5.08h-6.67v4.33c-.89-.2-6.83-5.68-7.14-7.81,1.79.93,4.01,1.54,9.88,1.57,5.22-.16,9.74-2.16,15.65-4.6,2.96-1.2,5.48-2.36,10.97-2.19,5.65.24,9.88,1.5,16.86,5,1.43.66,3.19,1.06,4.63,1.5Z"/>
      <path class="cls-2" d="m26.55,10.86c9.91-2.65,13.6-4.48,23.11-2.98,1.3-.12-9.36-4.57-15.85-3.27-5.21,1.04-7.61,4.34-7.26,6.26Z"/>
      <path class="cls-1" d="m11.78,8.88c2.1,1.35,9.28,3.64,14.76,1.99.78-3.24,3.85-4.43,8.11-5.22,3.64-.49,6.72-.3,8.56.06.99.25,5.03.78,6.44,2.19,8.29,1.92,13.85,6,14.45,6.39,2.81,1.24,3.99,1.28,4.41,1.4C67.21,14.61,42.46-.75,32.81.03,22.13.46,14.05,6.43,11.78,8.88Z"/>
      <g>
        <path class="cls-3" d="m.12,26.8s.03-.05.06-.05c.03,0,.06,0,.09,0-.07-.07-.12-.17-.14-.29-.02-.12-.06-.23-.14-.31.02-.05.03-.09.05-.14.01-.05.05-.06.12-.05-.03-.2-.02-.39.01-.56.04-.17.09-.34.17-.49.08-.15.17-.31.27-.46.1-.15.21-.3.31-.46.08-.02.13-.01.15.02.02.03.05.03.1-.02.15-.1.25-.21.3-.33.06-.12.08-.26.08-.4.08-.24.18-.47.28-.7s.23-.45.36-.65c.14-.2.28-.38.44-.53s.32-.27.51-.35c.13-.11.29-.21.49-.3.2-.09.41-.16.63-.21.22-.05.45-.08.69-.08.24,0,.46.02.66.08.05.02.07,0,.08-.03s.03-.06.07-.06c.46.05.87.15,1.23.27.36.13.67.31.93.53.17.27.34.57.49.88s.28.64.36.98.13.7.12,1.06c0,.36-.09.73-.23,1.09-.32.4-.71.72-1.17.96-.46.24-.95.44-1.47.6-.53.16-1.07.29-1.63.39-.56.1-1.11.21-1.64.33,0,.25,0,.51,0,.79,0,.28-.04.56-.09.83-.05.28-.12.55-.22.81-.1.26-.23.51-.39.74-.18,0-.37,0-.57.05-.2.05-.37.09-.53.14-.07-.05-.14-.09-.21-.13-.07-.04-.15-.07-.25-.08.03-.11,0-.22-.08-.34-.08-.12-.16-.23-.23-.35-.08-.11-.13-.23-.15-.34-.02-.11.03-.22.16-.31-.07-.06-.11-.16-.11-.3.04.04.08.05.14.05-.02-.16,0-.36.06-.59.06-.23.11-.45.15-.68.04-.22.05-.43.02-.62-.03-.19-.14-.32-.33-.4Zm3.56-3.2c-.04.1-.07.19-.09.27-.02.08-.05.15-.08.21-.03.06-.06.13-.09.19-.03.06-.07.14-.1.22.02.05.05.1.11.12.06.03.09.07.11.12.13-.06.26-.11.38-.14.13-.03.26-.06.38-.08.13-.02.26-.04.38-.07s.26-.07.4-.14c.14-.06.28-.12.43-.16.15-.04.3-.08.45-.13.15-.05.29-.1.42-.16.14-.06.26-.14.36-.24-.13-.12-.32-.22-.58-.31-.26-.09-.53-.15-.83-.17-.3-.02-.59,0-.89.06-.3.06-.56.2-.77.4Z"/>
        <path class="cls-3" d="m16.13,22.96c0,.06.01.11,0,.14,0,.03,0,.06-.01.09,0,.03,0,.06,0,.09s0,.08.03.14c-.19.31-.41.52-.67.64-.25.11-.52.2-.82.25-.29.05-.59.1-.9.16-.31.05-.61.17-.91.36-.12-.05-.23-.05-.32,0-.1.05-.24.06-.42.04-.05.05-.12.09-.21.12-.08.02-.16.05-.25.08.04.08.05.17.05.25,0,.09,0,.16.03.21.32.03.67.02,1.06-.01.39-.04.77-.06,1.14-.07,0,.05,0,.08-.01.09-.02.01-.02.04-.01.08.06.05.13.1.19.17s.13.13.19.2c.06.06.13.12.2.16.07.04.15.06.24.05.04.07.06.15.08.24.01.09,0,.18-.03.27-.15.1-.29.2-.44.31-.15.1-.3.2-.46.28s-.33.15-.51.2c-.18.05-.38.07-.6.06h-.1s-.05-.01-.09-.04c-.07.05-.18.06-.31.04-.13-.02-.24,0-.31.04-.1-.05-.22-.07-.36-.06-.14,0-.27-.01-.38-.05-.15.19-.28.4-.4.62s-.22.45-.31.7c.31.05.57.06.77.05.21,0,.4-.02.58-.05.18-.02.37-.05.56-.07.19-.02.43-.03.73-.02.18-.1.4-.17.65-.2.25-.03.48-.08.69-.16.07.03.14.08.19.14.06.07.11.13.16.19.05.06.1.11.16.16.05.05.12.06.21.05.04.04.06.08.08.13.01.05.02.1.03.14,0,.05.02.08.05.12.02.03.06.04.12.03-.14.3-.29.53-.47.69-.18.16-.38.28-.61.36-.23.08-.48.15-.76.19-.28.05-.59.1-.93.16-.08.02-.15.02-.21,0-.05-.02-.12-.03-.19-.03-.21.05-.46.09-.75.12-.29.04-.59.05-.89.04-.3,0-.59-.05-.86-.12s-.5-.19-.67-.36c-.07-.06-.12-.14-.14-.23-.02-.09-.08-.15-.19-.2,0-.12-.03-.25-.06-.4-.03-.15-.05-.3-.08-.46-.03-.16-.05-.32-.06-.47-.01-.15,0-.3.02-.42.03-.14.08-.26.17-.37.09-.11.12-.23.09-.36.05,0,.07-.03.08-.08,0-.04.05-.06.11-.05.05-.16.11-.32.18-.46.06-.15.13-.29.2-.42.07-.14.14-.28.21-.42.07-.14.13-.3.2-.47-.13-.12-.22-.25-.28-.39-.06-.14-.1-.28-.13-.42-.03-.14-.05-.29-.07-.44-.02-.15-.05-.3-.1-.46.09-.14.2-.25.34-.33.13-.09.28-.16.43-.21s.32-.1.51-.14c.18-.04.37-.08.58-.12.37-.12.69-.21.98-.27.29-.06.57-.12.85-.16s.57-.08.87-.12c.3-.04.64-.09,1.03-.16.08.08.16.12.23.12.04-.08.08-.11.13-.08.05.03.07,0,.06-.08.09.16.21.29.35.39.14.1.3.19.47.27Z"/>
        <path class="cls-3" d="m25.29,30.41c-.09.05-.18.09-.25.12-.08.04-.17.05-.27.05-.36-.26-.54-.72-.56-1.38s.13-1.49.42-2.5c.05-.03.07-.08.07-.16l-.12-.14s-.07,0-.1.01c-.03,0-.06.04-.08.1-.24.17-.5.35-.78.54-.28.19-.58.36-.88.52-.31.16-.62.29-.93.39-.31.1-.62.15-.93.15-.77,0-1.34-.39-1.73-1.16l-.11-.21-.11.18s-.07.11-.12.23c-.06.11-.11.24-.16.39-.06.15-.1.29-.14.44s-.06.28-.05.39c-.08.08-.17.18-.26.29s-.16.23-.21.37c-.02.07,0,.14.03.21-.02.08-.06.15-.12.19-.04.05-.08.09-.12.13s-.08.08-.1.13c-.02.05-.03.09-.03.14,0,.05-.01.09-.02.14,0,.06,0,.12-.03.18-.16.32-.28.53-.37.62s-.21.14-.37.14c-.07,0-.19-.01-.36-.04-.12-.13-.23-.3-.32-.53-.1-.22-.17-.46-.22-.72-.05-.25-.07-.51-.07-.77,0-.26.05-.49.13-.68,0,0,.04-.1.11-.27.07-.17.17-.4.28-.67s.24-.58.39-.91c.15-.33.29-.66.44-.97.15-.31.29-.6.42-.87.13-.26.24-.46.34-.6.07-.11.14-.21.2-.31s.12-.19.17-.28c.16-.28.32-.52.47-.7.15-.19.37-.33.66-.44.2.08.35.18.44.29l.03.15c.04.09.09.14.16.14.1.03.19.05.25.08.07.02.14.04.23.06.06.07.12.16.18.26.07.11.14.22.21.32.07.1.12.21.16.31.04.1.06.21.07.32s-.02.22-.06.34v.14c.06.08.07.2.04.34,0,.06-.01.13-.01.2s0,.14.03.23c.16.13.31.19.44.19.15,0,.28-.03.4-.1.12-.07.24-.14.35-.21.07-.05.15-.1.22-.14.07-.04.15-.07.22-.08.16-.15.31-.29.45-.41.13-.12.27-.24.42-.36.27-.22.54-.46.79-.71.26-.25.46-.57.62-.96.09-.05.19-.08.29-.08s.21.02.32.07c.11.05.21.09.31.14.03.02.05.03.08.04.02,0,.04.02.06.03,0,.09.04.17.11.23.04.03.06.05.07.05,0,0,.02.02.04.03.14.07.22.15.26.22.06.21.18.37.34.48-.02.09-.02.18,0,.25.02.08.05.16.09.24,0,.03.02.05.03.08,0,.03.02.06.04.1l-.26-.03.04.26c.02.13,0,.27-.03.42-.04.16-.09.28-.14.37,0,.24.02.42.02.55,0,.13,0,.26-.02.37-.02.11-.04.22-.08.32-.03.1-.08.21-.13.33.04.58-.03,1.11-.2,1.59s-.35.93-.53,1.35c-.02.05-.04.09-.06.14-.02.05-.04.09-.06.14-.08.03-.16.06-.22.09-.06.03-.13.07-.21.1Z"/>
        <path class="cls-3" d="m34.49,29.51c-.06.16-.14.31-.24.47-.11.16-.23.3-.37.42-.14.12-.3.23-.47.31-.17.08-.36.13-.55.14-.12-.03-.2-.06-.24-.09-.04-.03-.08-.06-.13-.09-.03-.02-.05-.03-.08-.05-.02-.01-.04-.02-.06-.03l-.16-.07.05-.18c.02-.07.01-.13-.01-.17s-.08-.1-.16-.17l-.08-.08s-.05-.05-.07-.08l-.23-.26.37-.1c.23-.06.38-.15.46-.25.08-.1.11-.27.09-.51-.18-.04-.34-.04-.46-.01-.12.03-.25.06-.38.1-.16.05-.33.08-.5.12-.17.03-.35.05-.56.05-.07,0-.14,0-.21,0-.06,0-.13-.01-.21-.02l-.14-.03c-.02-.1-.04-.16-.05-.17-.02-.01-.04-.03-.05-.05-.05-.05-.09-.11-.14-.18-.05-.08-.06-.18-.03-.29-.05-.08-.07-.16-.08-.25-.05.11-.1.22-.12.34l-.06.14-.14.03s-.03.03-.04.06c0,.03-.01.06-.01.08l-.07.23s-.04.03-.05.05c-.02.01-.04.03-.06.05-.02.08-.04.16-.07.25s-.05.16-.08.23c-.05.12-.08.23-.12.35-.03.11-.04.23-.03.33l-.05.15c-.05.05-.1.1-.15.13-.06.03-.11.06-.16.09-.02.02-.04.03-.08.05-.03.01-.06.03-.08.03l-.04.15-.16.03c-.1.02-.17.03-.21.04-.04,0-.09.01-.14.01h-.14c-.1-.1-.18-.16-.23-.21-.05-.05-.12-.1-.19-.14-.08-.11-.13-.19-.14-.25,0-.05-.02-.1-.03-.15-.02-.05-.03-.1-.03-.14,0-.04-.02-.06-.03-.08l-.18-.16.15-.12v-.23c.2-.46.39-.91.6-1.34.21-.43.42-.87.64-1.31.07-.15.14-.29.21-.44.07-.15.14-.29.21-.44,0-.03-.01-.06-.01-.1s0-.08.03-.12c.1-.15.18-.29.25-.42s.13-.25.19-.38c.07-.15.15-.31.23-.45.08-.15.18-.3.29-.45l.22-.1s.06-.02.1-.03.08-.02.12-.02l.21.03c.26-.12.48-.28.67-.5.19-.21.39-.47.59-.77l.14-.19.18.11s.11.05.19.08c.08.02.17.05.26.08.16.04.32.08.47.12.15.05.27.11.36.21.05.15.09.26.1.33,0,.07.02.15.04.22.03.16.05.31.08.46.02.16.04.33.05.52.05.16.08.31.12.46.03.15.06.3.09.46.05.22.09.43.14.64.05.21.1.4.18.58.07,0,.12,0,.14.01.05-.02.09-.03.14-.04.05,0,.11-.02.17-.03h.15s.05.12.05.12c0,.05.06.09.14.14.12,0,.21.03.26.08.06.04.1.08.15.13.04.04.07.06.11.08l.21.08-.11.21c-.09.16-.22.32-.39.47s-.36.28-.57.38c0,.05.02.11.02.16,0,.05.02.1.03.16.03.16.05.31.07.48.02.16.02.33,0,.51l-.03.05Zm-3.96-2.37c.27-.02.52-.04.75-.06.22-.02.47-.06.75-.12-.06-.27-.13-.56-.21-.85-.07-.3-.15-.59-.23-.88l-.08.14c-.18.19-.36.41-.53.64-.17.24-.31.46-.43.67-.05.08-.11.16-.16.25-.05.08-.1.16-.15.25.05,0,.11-.01.16-.01s.1,0,.14-.01Z"/>
        <path class="cls-3" d="m38.2,28.17c-.08.02-.14.07-.18.14-.04.08-.07.16-.1.24s-.06.16-.1.23c-.03.07-.08.1-.14.1,0,.07-.03.14-.08.19-.04.05-.08.11-.12.17-.04.06-.06.12-.08.19-.02.07,0,.15.03.24-.07.05-.12.13-.14.23-.02.1-.04.2-.06.29-.02.09-.06.17-.12.23-.05.06-.16.09-.3.08-.03.04-.03.06-.01.07.02,0,.03.04.04.1-.1-.02-.18-.01-.23.02-.05.03-.11.05-.19.06-.17-.05-.32-.15-.43-.29s-.21-.29-.3-.46c-.09-.17-.16-.34-.23-.51-.07-.17-.13-.32-.2-.45.03-.1.03-.2.01-.29-.02-.1-.05-.18-.1-.24.45-.95.94-1.96,1.47-3.04.53-1.08,1.03-2.14,1.51-3.19.21.08.42.18.62.28.21.1.39.23.56.36.17.14.31.29.43.47.12.18.2.38.23.59-.02.05-.04.08-.06.06-.02-.01-.04,0-.06.02.04.05.06.08.06.1,0,.02,0,.04,0,.05,0,.02,0,.04,0,.08s.01.08.04.13c-.04,0-.06,0-.08.01-.01.02-.04.02-.09,0,.04.1.05.18.03.25-.01.06-.03.12-.06.17-.03.05-.05.1-.07.16-.02.06-.01.13.01.23-.03,0-.05,0-.06.02s-.02.03-.03.04-.02.03-.03.04-.03.02-.06,0c.03.2.04.4.03.6,0,.2-.02.4-.02.61,0,.21,0,.42,0,.64,0,.22.04.45.1.69.33-.19.59-.44.79-.74.2-.3.36-.64.48-1.01.12-.37.22-.77.28-1.2.06-.43.13-.87.21-1.31.08-.08.15-.18.19-.3.05-.12.09-.24.12-.38.04-.13.07-.26.11-.4.04-.13.08-.25.14-.36.14.02.25.06.35.13.1.07.19.14.27.22.08.08.17.15.26.22s.21.11.34.13c.11.16.21.31.3.45.09.15.15.3.18.46-.05.07-.08.16-.1.25-.02.09-.05.18-.08.27-.03.09-.06.18-.11.25-.05.08-.11.14-.19.2-.03.24-.06.45-.1.65-.04.2-.08.39-.12.58-.04.19-.08.39-.1.59s-.04.43-.03.68c-.07.21-.15.43-.23.67-.08.24-.15.45-.19.64-.15.12-.26.26-.34.42-.08.16-.17.33-.26.49-.04.04-.06.05-.07.03,0-.02-.04-.03-.1-.04,0,.04,0,.06,0,.08,0,.02-.02.03-.03.05s-.02.03-.03.06,0,.06.02.11c-.13.05-.24.13-.34.23-.1.1-.21.19-.32.27s-.25.14-.41.16c-.16.03-.37,0-.62-.1-.37-.27-.71-.59-.99-.94-.29-.36-.52-.78-.71-1.27Z"/>
        <path class="cls-3" d="m50.56,29.51c-.06.16-.14.31-.24.47-.11.16-.23.3-.37.42-.14.12-.3.23-.47.31-.17.08-.36.13-.55.14-.12-.03-.2-.06-.24-.09-.04-.03-.08-.06-.13-.09-.03-.02-.05-.03-.08-.05-.02-.01-.04-.02-.06-.03l-.16-.07.05-.18c.02-.07.01-.13-.01-.17s-.08-.1-.16-.17l-.08-.08s-.05-.05-.07-.08l-.23-.26.37-.1c.23-.06.38-.15.46-.25.08-.1.11-.27.09-.51-.18-.04-.34-.04-.46-.01-.12.03-.25.06-.38.1-.16.05-.33.08-.5.12-.17.03-.35.05-.56.05-.07,0-.14,0-.21,0-.06,0-.13-.01-.21-.02l-.14-.03c-.02-.1-.04-.16-.05-.17-.02-.01-.04-.03-.05-.05-.05-.05-.09-.11-.14-.18-.05-.08-.06-.18-.03-.29-.05-.08-.07-.16-.08-.25-.05.11-.1.22-.12.34l-.06.14-.14.03s-.03.03-.04.06c0,.03-.01.06-.01.08l-.07.23s-.04.03-.05.05c-.02.01-.04.03-.06.05-.02.08-.04.16-.07.25s-.05.16-.08.23c-.05.12-.08.23-.12.35-.03.11-.04.23-.03.33l-.05.15c-.05.05-.1.1-.15.13-.06.03-.11.06-.16.09-.02.02-.04.03-.08.05-.03.01-.06.03-.08.03l-.04.15-.16.03c-.1.02-.17.03-.21.04-.04,0-.09.01-.14.01h-.14c-.1-.1-.18-.16-.23-.21-.05-.05-.12-.1-.19-.14-.08-.11-.13-.19-.14-.25,0-.05-.02-.1-.03-.15-.02-.05-.03-.1-.03-.14,0-.04-.02-.06-.03-.08l-.18-.16.15-.12v-.23c.2-.46.39-.91.6-1.34.21-.43.42-.87.64-1.31.07-.15.14-.29.21-.44.07-.15.14-.29.21-.44,0-.03-.01-.06-.01-.1s0-.08.03-.12c.1-.15.18-.29.25-.42s.13-.25.19-.38c.07-.15.15-.31.23-.45.08-.15.18-.3.29-.45l.22-.1s.06-.02.1-.03.08-.02.12-.02l.21.03c.26-.12.48-.28.67-.5.19-.21.39-.47.59-.77l.14-.19.18.11s.11.05.19.08c.08.02.17.05.26.08.16.04.32.08.47.12.15.05.27.11.36.21.05.15.09.26.1.33,0,.07.02.15.04.22.03.16.05.31.08.46.02.16.04.33.05.52.05.16.08.31.12.46.03.15.06.3.09.46.05.22.09.43.14.64.05.21.1.4.18.58.07,0,.12,0,.14.01.05-.02.09-.03.14-.04.05,0,.11-.02.17-.03h.15s.05.12.05.12c0,.05.06.09.14.14.12,0,.21.03.26.08.06.04.1.08.15.13.04.04.07.06.11.08l.21.08-.11.21c-.09.16-.22.32-.39.47s-.36.28-.57.38c0,.05.02.11.02.16,0,.05.02.1.03.16.03.16.05.31.07.48.02.16.02.33,0,.51l-.03.05Zm-3.96-2.37c.27-.02.52-.04.75-.06.22-.02.47-.06.75-.12-.06-.27-.13-.56-.21-.85-.07-.3-.15-.59-.23-.88l-.08.14c-.18.19-.36.41-.53.64-.17.24-.31.46-.43.67-.05.08-.11.16-.16.25-.05.08-.1.16-.15.25.05,0,.11-.01.16-.01s.1,0,.14-.01Z"/>
        <path class="cls-3" d="m56.9,30.82c-.13-.08-.23-.19-.31-.31-.08-.13-.14-.26-.19-.41-.05-.15-.09-.3-.12-.46-.03-.16-.07-.31-.1-.46,0-.13.03-.22.08-.28.05-.06.11-.12.18-.17.22,0,.42-.03.59-.05.17-.03.34-.05.51-.08.16-.03.33-.05.49-.08.16-.02.34-.03.53-.03.14-.28.26-.55.38-.81.12-.26.23-.51.34-.75.05-.23.13-.44.21-.64.09-.2.17-.38.25-.56s.16-.36.22-.53.1-.37.12-.57c.11-.32.21-.61.29-.88.09-.27.15-.59.2-.96-.35.05-.63.11-.84.16-.21.05-.36.1-.45.14-.18,0-.33-.05-.43-.11-.1-.06-.19-.14-.25-.23-.06-.09-.12-.2-.16-.31-.05-.12-.1-.24-.16-.37.04-.08.05-.2.03-.36-.02-.16-.07-.28-.16-.35.07-.02.13-.08.16-.18.04-.1.04-.18.01-.24.16-.05.32-.08.49-.09.17-.01.34-.03.51-.04.17-.01.33-.03.49-.05.16-.02.29-.07.4-.14.48-.02.97-.04,1.49-.05.52-.02.99-.04,1.43-.07.16.05.35.08.57.08s.43.01.64.04.41.09.58.18c.17.09.29.25.35.48.14.02.24.05.31.11.07.05.11.12.13.2.02.08.02.16.02.26s0,.19,0,.28c-.15.11-.33.2-.56.27-.22.07-.47.12-.73.16s-.54.07-.83.08c-.29.01-.57.03-.84.03-.05.3-.13.65-.24,1.06-.11.41-.23.8-.35,1.19-.12.39-.22.73-.31,1.04-.09.31-.13.5-.12.59-.09.21-.17.39-.23.53-.06.15-.11.28-.16.41-.05.13-.1.25-.15.38-.05.12-.11.26-.19.42h.93c.02.1.06.17.12.21.06.04.13.07.21.1s.14.06.2.1.09.11.09.2c.17.05.28.11.33.21.05.09.06.19.03.29-.02.1-.07.21-.14.32s-.13.21-.2.29c-.08-.02-.16,0-.23.06-.07.06-.14.13-.21.2-.27-.04-.53-.04-.78-.01-.26.03-.49.05-.71.07-.05,0-.06.03-.05.08,0,.04,0,.07-.03.09-.28-.09-.57-.13-.87-.11-.3.02-.6.06-.9.13s-.62.14-.94.22-.64.12-.97.13Z"/>
        <path class="cls-3" d="m66.71,28.17c-.08.02-.14.07-.18.14-.04.08-.07.16-.1.24s-.06.16-.1.23c-.03.07-.08.1-.14.1,0,.07-.03.14-.08.19-.04.05-.08.11-.12.17-.04.06-.06.12-.08.19-.02.07,0,.15.03.24-.07.05-.12.13-.14.23-.02.1-.04.2-.06.29-.02.09-.06.17-.12.23-.05.06-.16.09-.3.08-.03.04-.03.06-.01.07.02,0,.03.04.04.1-.1-.02-.18-.01-.23.02-.05.03-.11.05-.19.06-.17-.05-.32-.15-.43-.29s-.21-.29-.3-.46c-.09-.17-.16-.34-.23-.51-.07-.17-.13-.32-.2-.45.03-.1.03-.2.01-.29-.02-.1-.05-.18-.1-.24.45-.95.94-1.96,1.47-3.04.53-1.08,1.03-2.14,1.51-3.19.21.08.42.18.62.28.21.1.39.23.56.36.17.14.31.29.43.47.12.18.2.38.23.59-.02.05-.04.08-.06.06-.02-.01-.04,0-.06.02.04.05.06.08.06.1,0,.02,0,.04,0,.05,0,.02,0,.04,0,.08s.01.08.04.13c-.04,0-.06,0-.08.01-.01.02-.04.02-.09,0,.04.1.05.18.03.25-.01.06-.03.12-.06.17-.03.05-.05.1-.07.16-.02.06-.01.13.01.23-.03,0-.05,0-.06.02s-.02.03-.03.04-.02.03-.03.04-.03.02-.06,0c.03.2.04.4.03.6,0,.2-.02.4-.02.61,0,.21,0,.42,0,.64,0,.22.04.45.1.69.33-.19.59-.44.79-.74.2-.3.36-.64.48-1.01.12-.37.22-.77.28-1.2.06-.43.13-.87.21-1.31.08-.08.15-.18.19-.3.05-.12.09-.24.12-.38.04-.13.07-.26.11-.4.04-.13.08-.25.14-.36.14.02.25.06.35.13.1.07.19.14.27.22.08.08.17.15.26.22s.21.11.34.13c.11.16.21.31.3.45.09.15.15.3.18.46-.05.07-.08.16-.1.25-.02.09-.05.18-.08.27-.03.09-.06.18-.11.25-.05.08-.11.14-.19.2-.03.24-.06.45-.1.65-.04.2-.08.39-.12.58-.04.19-.08.39-.1.59s-.04.43-.03.68c-.07.21-.15.43-.23.67-.08.24-.15.45-.19.64-.15.12-.26.26-.34.42-.08.16-.17.33-.26.49-.04.04-.06.05-.07.03,0-.02-.04-.03-.1-.04,0,.04,0,.06,0,.08,0,.02-.02.03-.03.05s-.02.03-.03.06,0,.06.02.11c-.13.05-.24.13-.34.23-.1.1-.21.19-.32.27s-.25.14-.41.16c-.16.03-.37,0-.62-.1-.37-.27-.71-.59-.99-.94-.29-.36-.52-.78-.71-1.27Z"/>
        <path class="cls-3" d="m77.53,30.69c-.15,0-.33,0-.54-.01-.21-.02-.41.01-.6.1-.48-.02-.98-.08-1.48-.18s-.96-.22-1.38-.37c-.09-.1-.18-.19-.27-.28-.09-.09-.21-.15-.37-.18-.22-.17-.4-.38-.53-.64-.14-.25-.25-.52-.33-.8-.08-.28-.14-.57-.16-.87-.03-.3-.04-.58-.03-.85.14-.41.33-.76.58-1.06.25-.3.51-.59.77-.88.12-.05.21-.11.27-.17.06-.06.12-.11.19-.16.07-.05.14-.1.21-.15.07-.05.13-.11.18-.18.19-.05.36-.11.5-.2.14-.09.28-.18.42-.27.14-.1.28-.18.42-.27.15-.08.32-.15.51-.19.07-.08.16-.15.26-.2.1-.05.2-.1.31-.15.1-.05.21-.1.3-.16.1-.05.17-.13.23-.22.05.07.11.1.19.08.08-.02.16-.05.23-.08.05,0,.08,0,.12.03.03.03.06.05.09.08s.05.04.08.05c.02,0,.04-.02.06-.06.05,0,.06.02.04.07-.02.05-.03.08-.04.1.07,0,.13,0,.19.05.05.04.13.07.24.08.04.05.05.08.03.1-.02.02-.03.06-.03.12.27.08.45.21.52.39.07.18.08.36.01.55s-.18.37-.34.53-.34.27-.53.33c-.44.12-.85.25-1.24.39-.39.14-.71.35-.95.62-.22.06-.41.15-.58.25-.17.1-.33.22-.48.36-.15.13-.29.27-.42.41-.13.14-.27.28-.42.42,0,.13-.01.23-.06.29-.05.07-.1.14-.14.21.02.14.05.26.1.36.05.1.1.21.15.31.6.18,1.25.3,1.93.34.68.05,1.36.07,2.05.08.06.09.14.18.23.25.09.08.17.16.24.25.07.09.13.18.18.29.05.1.05.23.03.39-.13.14-.27.26-.42.38-.16.11-.31.23-.47.35Z"/>
        <path class="cls-3" d="m81.03,29.03c.02.07.03.14.04.21,0,.06.02.13.04.21-.04.09-.07.18-.1.27-.03.09-.05.17-.08.25-.03.06-.05.1-.05.12,0,.02-.01.03-.01.04,0,0,0,.02,0,.03,0,.01,0,.05,0,.12l-.06.16c-.05.06-.1.11-.16.15-.06.04-.13.07-.19.1-.02.02-.05.03-.08.05s-.06.03-.08.05l-.04.16-.18.03c-.16.04-.29.05-.4.05h-.16c-.11-.1-.2-.18-.26-.23s-.13-.1-.21-.15c-.09-.13-.14-.22-.15-.28,0-.06-.02-.12-.04-.17-.02-.12-.04-.2-.07-.23l-.19-.19.16-.12-.15-.26c.11-.08.19-.14.25-.18.05-.04.1-.08.14-.12.04-.04.08-.09.12-.16.05-.06.12-.17.22-.31l.12-.18.18.1s.12.05.24.08c.12.02.23.04.32.06.16.05.3.08.44.1.14.02.25.07.33.14l.05.11Z"/>
      </g>
    </g>
  </g>
</svg>