<?xml version="1.0" encoding="UTF-8"?>
<svg id="Calque_2" data-name="Calque 2" xmlns="http://www.w3.org/2000/svg" viewBox="0 0 57.99 24.78">
  <defs>
    <style>
      .cls-1 {
        fill: #366732;
      }

      .cls-2 {
        fill: #7ab33c;
      }
    </style>
  </defs>
  <g id="Calque_1-2" data-name="Calque 1">
    <path class="cls-2" d="m57.99,15.67c-9.62-1.74-12.49.72-12.49.72v-2.33h-4.92v5c-.75.64-1.81,1.16-3.19,1.61v-7.67h-6.2v4.75h-5.14v6.67c-.62.29-1.37.36-2.25.36v-9.19h-5.78v7.36h-4.22v-5.08h-6.67v4.33c-.89-.2-6.83-5.68-7.14-7.81,1.79.93,4.01,1.54,9.88,1.57,5.22-.16,9.74-2.16,15.65-4.6,2.96-1.2,5.48-2.36,10.97-2.19,5.65.24,9.88,1.5,16.86,5,1.43.66,3.19,1.06,4.63,1.5Z"/>
    <path class="cls-2" d="m16.03,10.86c9.91-2.65,13.6-4.48,23.11-2.98,1.3-.12-9.36-4.57-15.85-3.27-5.21,1.04-7.61,4.34-7.26,6.26Z"/>
    <path class="cls-1" d="m1.26,8.88c2.1,1.35,9.28,3.64,14.76,1.99.78-3.24,3.85-4.43,8.11-5.22,3.64-.49,6.72-.3,8.56.06.99.25,5.03.78,6.44,2.19,8.29,1.92,13.85,6,14.45,6.39,2.81,1.24,3.99,1.28,4.41,1.4C56.68,14.61,31.94-.75,22.29.03,11.61.46,3.53,6.43,1.26,8.88Z"/>
  </g>
</svg>