<?xml version="1.0" encoding="UTF-8"?>
<svg id="Calque_2" data-name="Calque 2" xmlns="http://www.w3.org/2000/svg" xmlns:xlink="http://www.w3.org/1999/xlink" viewBox="0 0 106.92 103.29">
  <defs>
    <style>
      .cls-1 {
        fill: url(#Dégradé_sans_nom_11);
        opacity: .51;
      }

      .cls-2 {
        fill: #fff;
      }

      .cls-3 {
        fill: #7eb6d2;
      }

      .cls-4 {
        fill: url(#Dégradé_sans_nom_8);
      }

      .cls-5 {
        fill: #89c5e4;
      }

      .cls-6 {
        fill: #73a6bf;
      }

      .cls-7 {
        fill: #1d1d1b;
      }
    </style>
    <radialGradient id="Dégradé_sans_nom_8" data-name="Dégradé sans nom 8" cx="53.44" cy="53.1" fx="53.44" fy="53.1" r="44.18" gradientTransform="translate(0 -8.77) scale(1 1.17)" gradientUnits="userSpaceOnUse">
      <stop offset=".18" stop-color="#3f3f3e"/>
      <stop offset=".37" stop-color="#4e4e4d"/>
      <stop offset=".63" stop-color="#686867"/>
      <stop offset=".63" stop-color="#676766"/>
      <stop offset=".76" stop-color="#515150"/>
      <stop offset=".89" stop-color="#434342"/>
      <stop offset="1" stop-color="#3f3f3e"/>
    </radialGradient>
    <radialGradient id="Dégradé_sans_nom_11" data-name="Dégradé sans nom 11" cx="53.44" cy="99.68" fx="53.44" fy="99.68" r="16.53" gradientTransform="translate(0 77.91) scale(1 .22)" gradientUnits="userSpaceOnUse">
      <stop offset="0" stop-color="#161412" stop-opacity=".2"/>
      <stop offset=".77" stop-color="#161412" stop-opacity="0"/>
    </radialGradient>
  </defs>
  <g id="Calque_1-2" data-name="Calque 1">
    <path class="cls-4" d="m90.91,59.03c-1.02,1.81-1.52,2.3-5.56,5.56-5.37,3.69-6.16,6.15-5.68,8.27,0,0,3.5-1.61,3.33,1.85-.66,2.47-26.83,15.99-26.68,7.16-.03-9.29.62-47.3.62-47.3l16.24.27c1.28-1.93,1.36-3.79,0-5.56l-16.12-.02v-6.42c7.12-1.28,8.37-16.18-3.66-16.06-12.47,1.67-7.89,14.96-3.01,16.3v6.3l-14.57-.03c-1.92,1.72-1.5,3.4,0,5.06l14.57.03-.62,47.43c-.56,7.12-20.76-.7-23.84-6.3-1.06-1.45-.92-2.79,1.48-3.95,1.44-1.57-.1-3.7-4.2-6.3-2.66-1.73-5.47-3.96-8.4-6.55-4.83,5.57-4.37,18.4,1.11,21.98,1.14-3.3,3.42-3.17,7.04,0,5.77,5.62,12.01,10.26,19.51,12.23,4.59,1.2,8.51,3.07,10.91,6.42.42-1.76,2.93-4.14,10.21-7.9,8.31-2.51,14.38-5.73,18.28-9.63,3.94-4.3,7.52-5.29,10.5-.74,4.54-3.16,3.81-19.76-1.48-22.11ZM54.05,18.02c-1.98,0-3.58-1.6-3.58-3.58s1.6-3.58,3.58-3.58,3.58,1.6,3.58,3.58-1.6,3.58-3.58,3.58Z"/>
    <ellipse class="cls-1" cx="53.44" cy="99.68" rx="16.89" ry="3.61"/>
    <path class="cls-2" d="m34.41,82.63c2.35,2.11,9.84,5.32,14.68,2.7-.17,1-.08,2.58-3.84,2.81-1.86.11-8-1.46-10.84-5.51Z"/>
    <path class="cls-2" d="m51.03,64.49c.24-10.29.17-13.49.26-23.1.18.36.83,6.57.78,10.54.05,2.22.3,8.02-1.04,12.57Z"/>
    <path class="cls-2" d="m16.47,78.35c-2.49-1.19-4.65-6.87-3.88-11.56-.39.71-1.5,4.58.88,9.53.9,1.73,1.34,1.69,3,2.02Z"/>
    <path class="cls-2" d="m89.06,64.45c-2.44.68-4.7,3.94-7.34,6.39.02-.82.17-2.16,1.52-3.2,1.61-1.4,4.01-2.89,5.82-3.19Z"/>
    <path class="cls-2" d="m51.26,8.04c-3.8,2.01-3.67,2.49-5.03,4.62-.02-.77.06-2.03,1.25-2.94,1.42-1.25,2.13-1.48,3.78-1.67Z"/>
    <path class="cls-6" d="m70.61,7.58c5.23.89,10.11,1.17,14.15,0l-2.1,8.18,2.1,7.51c-.25.91-9.81,1.34-14.15,0V7.58Z"/>
    <polygon class="cls-3" points="70.61 7.58 78.69 3.68 78.69 18.95 70.61 23.26 70.61 7.58"/>
    <path class="cls-6" d="m36.21,7.58c-5.22.89-10.1,1.17-14.12,0l2.09,8.18-2.09,7.51c.25.91,9.79,1.34,14.12,0V7.58Z"/>
    <polygon class="cls-3" points="36.21 7.58 28.14 3.68 28.14 18.95 36.21 23.27 36.21 7.58"/>
    <path class="cls-5" d="m78.69,3.68C62.1-1.19,45.26-1.27,28.14,3.68v15.27c16.85-5.9,33.7-5.9,50.55,0V3.68Z"/>
    <path class="cls-6" d="m86.81,52.54c7.44-.89,14.38-1.17,20.11,0l-2.98-8.18,2.98-7.51c-.36-.91-13.94-1.34-20.11,0v15.69Z"/>
    <polygon class="cls-3" points="86.81 52.54 94.89 56.43 94.89 41.17 86.81 36.85 86.81 52.54"/>
    <path class="cls-6" d="m20.11,52.55c-7.44-.89-14.38-1.17-20.11,0l2.98-8.18-2.98-7.51c.36-.91,13.94-1.34,20.11,0v15.69Z"/>
    <polygon class="cls-3" points="20.11 52.55 12.03 56.44 12.03 41.18 20.11 36.86 20.11 52.55"/>
    <path class="cls-5" d="m94.85,56.44c-27.18,4.87-54.78,4.95-82.81,0v-15.27c27.6,5.9,55.21,5.9,82.81,0v15.27Z"/>
    <g>
      <path class="cls-7" d="m15.41,52.48c.08-.33.13-.6.17-.82.07-.05.14-.11.21-.16,0,0,.13-.11.38-.32.73-.62,1.45-1.25,2.16-1.88.23-.21.45-.41.68-.62-.08-.01-.16-.03-.24-.04-.03,0-.06,0-.09-.01-.11-.02-.22-.03-.32-.05-.19-.03-.38-.06-.56-.08-.47-.07-.92-.13-1.37-.17.05-.19.08-.39.12-.61,0-.04.01-.1.02-.17.64.11,1.33.21,2.05.32.41.06.82.12,1.24.18.22.03.45.06.67.09-.06.27-.11.54-.15.82-.1.08-.19.16-.29.24-.06.05-.11.1-.17.15-.52.47-1.04.95-1.57,1.42-.46.4-.92.8-1.38,1.2.1.02.2.03.3.05.85.13,1.4.2,1.64.24.24.03.51.06.81.08-.07.34-.12.61-.15.81-.72-.11-1.39-.21-1.99-.3-.47-.07-.93-.14-1.39-.21-.25-.04-.5-.08-.76-.11Z"/>
      <path class="cls-7" d="m22.98,49.65c.29.04.55.11.81.23.25.12.46.27.62.46.16.19.28.41.34.66.06.25.08.51.05.78-.03.28-.11.54-.24.79-.13.25-.3.46-.51.63-.21.17-.46.28-.75.34-.29.06-.59.07-.91.03-.29-.04-.57-.12-.82-.24-.25-.12-.46-.28-.62-.47-.16-.19-.28-.42-.34-.68-.06-.26-.08-.52-.04-.78.04-.27.12-.52.24-.76.12-.23.29-.43.5-.6.21-.17.47-.28.77-.35.3-.07.61-.08.92-.04Zm-.1.76c-.22-.03-.42,0-.6.08-.18.08-.33.22-.44.42-.11.2-.18.41-.21.66-.03.21-.02.41.03.58.05.18.14.33.28.45.14.12.32.2.54.23.22.03.42,0,.6-.09.18-.09.33-.23.44-.42.11-.2.18-.42.21-.67.03-.2.02-.39-.03-.57-.04-.18-.14-.32-.28-.44-.14-.12-.32-.19-.54-.22Z"/>
      <path class="cls-7" d="m27.69,50.21c.29.03.56.1.81.22.25.11.46.26.63.45.17.18.28.4.35.65.07.25.09.51.06.77-.03.28-.1.55-.23.8-.12.25-.29.46-.5.64-.21.17-.45.29-.74.36-.29.06-.59.08-.91.05-.29-.03-.57-.1-.82-.22-.25-.11-.47-.27-.63-.46-.17-.19-.28-.42-.35-.67-.07-.25-.09-.52-.06-.78.03-.27.11-.52.22-.76.12-.24.28-.44.49-.61.21-.17.46-.29.76-.37.3-.07.61-.09.91-.06Zm-.08.76c-.22-.02-.42,0-.6.09-.18.09-.33.23-.43.43-.11.2-.17.42-.2.66-.02.21-.01.41.04.58.05.18.15.32.29.44.15.12.33.19.54.22.22.02.42,0,.6-.1.18-.09.32-.23.43-.43.11-.2.17-.43.2-.68.02-.21,0-.39-.04-.57-.05-.17-.14-.32-.28-.44-.14-.12-.32-.19-.54-.21Z"/>
      <path class="cls-7" d="m30.01,54.34c.08-.41.2-1.16.36-2.23.16-1.08.28-2.01.37-2.79.26.03.44.05.55.06.15.01.33.03.54.04-.07.45-.14.9-.21,1.34-.14,1-.27,2-.41,3-.03.23-.05.46-.08.69-.21-.02-.38-.04-.53-.06-.05,0-.24-.02-.58-.05Z"/>
      <path class="cls-7" d="m34.02,54.69c.08-.47.2-1.28.35-2.44.15-1.16.24-2.03.29-2.61.22.02.41.04.57.05.16.01.33.02.52.03-.07.35-.13.78-.2,1.31.25-.03.45-.05.59-.05.15,0,.29,0,.43,0,.39.03.72.11.98.25.26.14.46.36.61.65.14.29.2.64.18,1.05-.02.28-.08.55-.17.81-.1.26-.24.49-.41.68-.18.2-.38.33-.62.42-.24.08-.5.11-.77.09-.13,0-.25-.03-.36-.06-.11-.03-.21-.07-.3-.13-.09-.05-.17-.11-.24-.17-.07-.06-.13-.13-.17-.19-.04-.06-.1-.15-.15-.26-.02.21-.04.42-.06.63-.21-.02-.37-.04-.49-.05-.09,0-.27-.02-.54-.04Zm1.4-2.89c-.03.21-.05.42-.08.63-.02.13-.03.27-.04.4-.02.31,0,.55.04.73.05.18.15.33.3.43.15.11.32.17.51.18.21.02.39-.03.56-.13.16-.1.29-.25.39-.46.1-.21.15-.43.17-.66.02-.34-.05-.62-.22-.83-.17-.22-.43-.34-.78-.36-.12,0-.24,0-.36,0-.13,0-.28.03-.47.07Z"/>
      <path class="cls-7" d="m39.33,52.11c.05-.18.07-.3.09-.37.01-.07.04-.18.07-.32.34-.06.65-.1.91-.12.26-.02.51-.02.76,0,.28.01.53.06.75.13.23.07.4.18.53.33.12.15.18.35.17.61,0,.14-.04.5-.11,1.08-.07.58-.12,1.17-.15,1.79-.19-.01-.37-.02-.53-.03-.16,0-.34-.01-.55-.02.05-.3.09-.64.13-1.04.03-.31.06-.61.1-.92-.1.06-.17.1-.23.12-.05.02-.11.04-.17.06-.06.02-.18.05-.34.08-.16.04-.29.07-.39.09-.1.03-.19.06-.27.1-.08.04-.15.08-.2.13-.06.05-.1.1-.12.15-.03.06-.04.11-.05.18,0,.1.02.2.08.27.06.08.13.14.22.17.09.04.2.06.33.06.08,0,.17,0,.26,0,.09,0,.21-.03.37-.07-.06.14-.13.35-.22.62-.18.02-.33.03-.43.03-.11,0-.21,0-.3,0-.32-.02-.58-.08-.78-.17-.2-.1-.34-.24-.43-.43-.09-.19-.12-.38-.11-.56,0-.11.03-.21.08-.31.04-.1.11-.19.18-.28.08-.08.18-.16.3-.23.12-.07.29-.14.52-.2.22-.06.52-.12.88-.18.1-.01.2-.03.3-.06.1-.02.19-.05.25-.07.06-.02.12-.06.17-.1.05-.04.08-.08.11-.13.02-.05.04-.09.04-.14,0-.1-.02-.18-.08-.25-.06-.07-.14-.12-.24-.15-.1-.03-.21-.05-.33-.06-.46-.02-.97.06-1.53.24Z"/>
      <path class="cls-7" d="m43.27,55.26c.06-.59.12-1.17.18-1.76.02-.34.05-.68.07-1.02.01-.21.03-.42.03-.63,0-.04,0-.16,0-.35.23.01.4.02.51.03.13,0,.3,0,.51.01-.01.17-.03.35-.04.52.1-.13.19-.23.26-.29.07-.06.15-.12.23-.16.09-.04.18-.08.28-.1.1-.02.21-.03.32-.03.1,0,.2.02.31.05,0,.23,0,.52,0,.88-.15-.04-.28-.07-.4-.07-.15,0-.27.01-.39.05-.11.04-.22.1-.31.19-.09.08-.17.19-.23.32-.05.1-.09.24-.12.4-.02.13-.05.35-.07.66-.03.31-.04.62-.06.92,0,.12,0,.26,0,.44-.19-.01-.37-.02-.53-.03-.16,0-.35-.01-.56-.02Z"/>
      <path class="cls-7" d="m48.51,56.21c.57.2,1.07.3,1.49.3.16,0,.31-.01.46-.05.14-.04.26-.09.36-.16.1-.07.17-.17.23-.29.05-.12.09-.27.11-.43.02-.16.04-.41.05-.75-.1.13-.19.23-.27.3-.08.07-.18.14-.29.19-.11.06-.24.1-.39.14-.15.03-.3.05-.47.05-.22,0-.44-.04-.63-.11-.2-.07-.38-.18-.53-.33-.15-.15-.27-.34-.34-.56-.08-.22-.11-.46-.11-.7,0-.34.08-.67.22-.97.14-.3.34-.55.6-.75.26-.19.53-.33.82-.39.29-.07.61-.1.96-.1.2,0,.42.02.66.04.25.03.57.08.98.15-.03.39-.06.78-.09,1.18-.03.49-.06.98-.09,1.48-.01.44-.03.89-.04,1.33,0,.15-.03.3-.06.44-.03.14-.08.27-.15.38-.07.11-.15.21-.25.3-.1.08-.22.15-.35.21-.13.05-.29.09-.48.13-.19.03-.4.05-.61.04-.23,0-.5-.02-.79-.06-.3-.03-.62-.1-.97-.18-.01-.27-.02-.54-.03-.81Zm2.83-3.78c-.22-.05-.42-.07-.61-.07-.33,0-.6.05-.81.17-.22.11-.38.28-.5.51-.12.22-.18.46-.19.72,0,.19.03.36.1.52.07.16.18.28.33.37.15.08.32.13.5.13.13,0,.25-.02.36-.05.11-.04.22-.1.31-.18.09-.08.17-.18.24-.3.07-.12.12-.26.15-.41.03-.15.05-.34.07-.57.02-.23.03-.5.05-.82Z"/>
      <path class="cls-7" d="m52.97,51.16c.16-.28.3-.57.44-.85.22,0,.42,0,.6,0,.12,0,.3,0,.56,0,.11.26.24.54.4.85-.13,0-.24,0-.32,0-.06,0-.16,0-.31,0-.11-.16-.23-.32-.34-.49-.12.16-.25.33-.37.49-.1,0-.2,0-.32,0-.13,0-.24,0-.34,0Zm.25,4.32c.04-.37.06-.68.08-.93.02-.4.05-.85.07-1.37.02-.52.03-1.01.04-1.48.25,0,.43,0,.55,0,.11,0,.3,0,.55,0-.03.43-.06.84-.08,1.24-.02.39-.03.84-.04,1.35,0,.51-.01.91-.01,1.2-.23,0-.42,0-.56,0-.13,0-.33,0-.6,0Z"/>
      <path class="cls-7" d="m57.63,54.67c-.03.14-.07.39-.13.76-.21.05-.38.08-.5.1-.12.01-.24.02-.34.02-.19,0-.36-.01-.51-.05-.15-.03-.27-.09-.37-.18-.1-.09-.16-.19-.2-.31-.04-.12-.05-.24-.05-.37,0-.03,0-.07,0-.13,0-.05.01-.23.03-.53.02-.52.05-1.03.07-1.55-.18,0-.36,0-.54,0,.01-.15.02-.39.03-.72.19,0,.38,0,.57,0,.01-.14.03-.39.04-.73.15-.03.29-.06.44-.09.09-.02.27-.06.53-.13-.01.34-.02.65-.02.94.32,0,.64,0,.95-.01-.01.34-.02.57-.01.72-.32,0-.64.01-.96.01-.04,1.01-.06,1.59-.06,1.75,0,.15.02.27.06.36.04.08.09.14.17.18.08.04.16.05.24.05.06,0,.13,0,.2-.02.07-.01.19-.04.37-.09Z"/>
      <path class="cls-7" d="m61.59,54.51c-.03.15-.07.41-.12.79-.27.07-.5.11-.69.14-.19.02-.38.04-.57.05-.33,0-.63-.02-.9-.07-.26-.06-.5-.17-.7-.34-.2-.17-.35-.38-.45-.62-.1-.25-.15-.51-.15-.79,0-.3.04-.6.15-.89.1-.29.25-.53.44-.71.19-.19.41-.32.65-.4.25-.08.5-.12.77-.13.25,0,.5.02.73.07.23.06.43.15.59.29.16.14.29.31.38.51.09.2.14.42.15.67,0,.12,0,.24-.03.36-.92.03-1.85.06-2.77.08,0,.09,0,.17,0,.22,0,.17.04.32.1.46.06.14.15.25.26.35.11.09.25.16.4.2.16.04.31.06.46.06.17,0,.36-.03.57-.07.2-.04.44-.11.72-.21Zm-2.49-1.43c.59-.01,1.18-.03,1.77-.04,0-.12,0-.21-.02-.26,0-.06-.03-.12-.06-.19-.03-.07-.07-.14-.11-.19-.05-.05-.1-.1-.16-.13-.06-.04-.13-.06-.21-.08-.08-.02-.16-.02-.25-.02-.11,0-.21.02-.31.06-.1.04-.19.08-.27.15-.08.06-.15.13-.2.21-.05.08-.09.15-.11.22-.02.07-.05.17-.07.28Z"/>
      <path class="cls-7" d="m64.48,55.24c.01-.59.02-1.18.03-1.77,0-.34-.01-.68-.02-1.03,0-.21-.01-.42-.02-.64,0-.04,0-.16-.02-.35.23,0,.4-.01.51-.02.13,0,.3-.02.51-.03,0,.17,0,.35,0,.52.09-.14.16-.24.23-.31.06-.07.14-.13.22-.18.08-.05.17-.09.27-.12.1-.03.21-.05.31-.05.1,0,.2,0,.31.02.01.23.04.52.08.87-.15-.03-.29-.04-.41-.04-.15,0-.27.04-.38.08-.11.05-.21.12-.29.21-.08.09-.15.2-.2.34-.04.11-.07.24-.09.41-.01.13-.02.35-.02.66,0,.31.01.62.02.92,0,.12.02.26.03.44-.19,0-.37.01-.53.02-.16,0-.35.02-.56.03Z"/>
      <path class="cls-7" d="m67.51,55.08c.02-.37.03-.69.03-.94,0-.4,0-.86-.01-1.37-.01-.52-.03-1.01-.04-1.48.24,0,.43-.02.55-.02.11,0,.29-.02.54-.04,0,.43,0,.85,0,1.24,0,.39.02.84.04,1.35.02.51.04.91.06,1.2-.23,0-.42.02-.56.03-.13,0-.33.02-.6.04Zm-.05-4.43c0-.26-.01-.45-.02-.59,0-.04,0-.08,0-.12.23,0,.41-.02.55-.02.19-.01.37-.03.54-.04,0,.06,0,.13,0,.21,0,.17,0,.33.01.5-.19,0-.36.01-.52.02-.16,0-.34.02-.55.04Z"/>
      <path class="cls-7" d="m70.63,54.89c-.2-.51-.74-1.74-1.59-3.68.22,0,.41-.02.57-.03.17-.01.34-.03.52-.04.36.92.72,1.85,1.08,2.77.03-.11.07-.22.1-.33.23-.73.46-1.46.69-2.18.03-.1.07-.24.12-.4.2-.01.39-.02.55-.04.16-.01.35-.03.55-.05-.17.45-.34.91-.51,1.36-.24.68-.49,1.37-.74,2.05-.05.16-.11.33-.17.49-.23.01-.42.02-.57.03-.16.01-.36.03-.6.05Z"/>
      <path class="cls-7" d="m77.16,53.49c-.02.15-.04.41-.06.8-.27.08-.49.14-.68.18-.19.04-.37.06-.56.08-.33.03-.63.02-.9-.02-.27-.04-.51-.14-.72-.29-.21-.15-.37-.35-.49-.59-.11-.24-.18-.5-.21-.77-.02-.3,0-.6.09-.9.08-.29.22-.54.39-.74.18-.2.39-.35.63-.44.24-.1.5-.16.76-.18.25-.02.5-.01.73.03.23.04.44.13.61.25.17.13.31.29.41.48.1.19.17.41.19.66.01.12.01.24,0,.36-.92.09-1.84.18-2.76.26,0,.09,0,.16.01.22.01.17.06.32.13.45.07.13.16.24.28.33.12.09.26.15.42.18.16.03.31.04.46.03.17-.02.36-.05.56-.11.2-.06.44-.14.71-.26Zm-2.58-1.27c.59-.05,1.17-.1,1.76-.16-.01-.12-.02-.2-.04-.26-.01-.06-.04-.12-.07-.19-.03-.07-.07-.13-.13-.18-.05-.05-.11-.09-.17-.12-.06-.03-.14-.05-.22-.07-.08-.01-.17-.01-.26,0-.1,0-.21.03-.3.08-.1.04-.18.1-.26.16-.08.07-.14.14-.18.22-.04.08-.08.16-.1.23-.02.07-.04.17-.05.29Z"/>
      <path class="cls-7" d="m78.14,54.24c-.02-.59-.05-1.18-.07-1.77-.02-.34-.05-.68-.07-1.02-.02-.21-.04-.42-.06-.63,0-.04-.02-.15-.04-.35.23-.02.4-.03.51-.04.13-.01.3-.03.5-.06.01.17.02.35.04.52.08-.14.15-.25.21-.32.06-.07.13-.14.21-.19.08-.06.17-.1.27-.14.1-.04.2-.06.31-.07.1-.01.2,0,.31,0,.03.23.07.52.13.87-.15-.02-.29-.03-.41-.01-.14.02-.27.05-.38.11-.11.06-.2.13-.28.23-.08.1-.14.21-.19.35-.04.11-.06.25-.06.41,0,.13,0,.35.02.66.02.31.04.62.08.92.01.11.03.26.06.43-.19.02-.37.03-.53.05-.16.02-.34.04-.56.07Z"/>
      <path class="cls-7" d="m81.12,50.95c.01-.18.02-.31.02-.38,0-.07,0-.18,0-.33.33-.12.62-.21.88-.27.25-.06.5-.11.74-.14.27-.03.53-.03.77,0,.24.03.43.11.58.23.15.12.24.31.27.57.02.14.04.5.08,1.08.03.58.09,1.18.16,1.79-.19.02-.37.04-.53.06-.15.02-.33.04-.54.08,0-.3-.02-.65-.05-1.04-.02-.31-.04-.62-.06-.92-.09.07-.15.13-.2.16-.05.03-.1.06-.16.09-.06.03-.17.07-.32.14-.15.06-.27.12-.37.16-.09.04-.17.09-.25.14-.07.05-.13.1-.18.16-.05.06-.08.11-.1.17-.02.06-.02.12-.01.18.01.1.05.19.12.26.07.07.15.11.25.13.1.02.21.02.33,0,.08,0,.17-.03.25-.05.09-.02.2-.07.35-.14-.04.15-.07.36-.11.65-.18.05-.32.09-.42.11-.11.02-.2.03-.29.05-.32.04-.59.03-.8-.03-.21-.06-.38-.18-.5-.35-.12-.17-.19-.35-.21-.53-.01-.11,0-.21.02-.32.03-.11.07-.21.13-.3.06-.09.15-.19.25-.28.11-.09.26-.19.47-.29.21-.1.49-.21.84-.33.09-.03.19-.07.29-.11.1-.04.18-.08.24-.11.06-.03.11-.08.15-.12.04-.05.07-.1.08-.15.02-.05.02-.1.01-.15-.01-.1-.05-.17-.13-.23-.07-.06-.16-.09-.26-.11-.1-.01-.22-.01-.34,0-.45.06-.94.22-1.47.5Z"/>
      <path class="cls-7" d="m85.56,53.38c-.01-.37-.02-.69-.04-.94-.03-.4-.06-.85-.11-1.37-.05-.52-.1-1-.15-1.47.24-.03.42-.05.55-.07.11-.02.29-.04.54-.08.02.43.05.84.09,1.24.03.39.08.84.14,1.34.06.5.11.9.15,1.19-.23.03-.42.05-.55.07-.13.02-.33.05-.59.09Zm-.38-4.42c-.02-.25-.04-.45-.06-.58,0-.04-.01-.08-.02-.12.23-.02.41-.05.55-.07.19-.03.37-.05.54-.08,0,.06,0,.13.01.21.02.16.03.33.05.49-.19.02-.36.04-.52.06-.16.02-.34.05-.55.08Z"/>
      <path class="cls-7" d="m87.6,53.1c-.02-.57-.06-1.2-.12-1.9-.06-.7-.13-1.33-.2-1.88.23-.03.41-.05.55-.07.16-.02.33-.05.51-.08.02.21.03.42.05.63.06-.12.12-.22.17-.29.05-.07.11-.15.2-.22.08-.08.17-.14.27-.19.1-.05.21-.1.33-.14.12-.04.26-.07.39-.09.22-.03.44-.04.65-.01.21.02.39.09.53.19.14.1.25.22.31.35.06.14.11.28.13.44.01.07.02.17.04.32.06.54.12,1.08.18,1.62.03.22.06.46.09.72-.2.03-.37.05-.51.07-.19.03-.38.06-.58.1-.01-.22-.04-.59-.1-1.13-.05-.54-.09-.89-.12-1.06-.03-.19-.08-.34-.16-.45-.08-.11-.19-.18-.33-.22-.14-.04-.29-.05-.44-.03-.15.02-.28.07-.41.15-.12.08-.22.17-.3.3-.08.12-.14.27-.17.44-.03.18-.03.47,0,.87.03.35.07.83.14,1.42-.2.02-.37.05-.53.07-.16.02-.35.05-.58.09Z"/>
    </g>
    <g>
      <path class="cls-7" d="m33.24,14.21c-.06-.46-.11-.92-.16-1.38-.24-1.61-.47-3.21-.7-4.82-.11-.7-.22-1.39-.33-2.09.63-.14,1.1-.23,1.39-.3.23-.05.66-.15,1.28-.28.14.31.24.53.3.66.06.13.17.33.33.61.16.28.36.62.6,1.02.35.6.68,1.21.97,1.8.27.54.53,1.09.79,1.63.15-.79.3-1.57.46-2.36.25-1.03.52-2.06.8-3.08.03-.1.06-.22.08-.36.03-.13.07-.37.13-.71.53-.07,1.01-.14,1.42-.19.28-.04.72-.1,1.33-.18.08,1.17.19,2.46.33,3.88.14,1.41.26,2.46.35,3.16.04.34.1.76.17,1.26-.41.04-.68.07-.83.09-.21.03-.49.07-.84.13-.03-.41-.07-.76-.1-1.02-.14-1.2-.27-2.41-.41-3.61-.06-.51-.12-1.01-.19-1.5-.03-.16-.05-.33-.08-.49-.53,2.08-1.01,4.16-1.43,6.24-.05.25-.09.51-.14.76-.4.06-.67.1-.82.13-.18.03-.47.09-.86.17-.59-1.17-1.19-2.33-1.8-3.48-.06-.12-.21-.38-.44-.77-.22-.38-.44-.76-.66-1.14-.06-.11-.11-.2-.15-.26-.04-.07-.11-.22-.23-.47.03.26.05.52.08.78.03.25.09.66.17,1.24.18,1.25.37,2.5.57,3.75.03.19.09.46.16.82-.26.05-.52.11-.78.16-.13.03-.4.1-.79.2Z"/>
      <path class="cls-7" d="m44.33,7.42c.03-.3.05-.51.05-.63,0-.12.01-.3.03-.54.58-.19,1.1-.32,1.56-.41.45-.09.89-.15,1.32-.18.48-.03.93,0,1.34.08.41.08.73.23.97.45.24.22.36.54.38.97,0,.23,0,.82-.03,1.78-.03.95-.03,1.94,0,2.95-.31,0-.6.01-.86.03-.25.01-.54.03-.88.06.02-.5.03-1.07.03-1.72,0-.51,0-1.02,0-1.52-.16.11-.27.19-.36.24-.08.04-.18.09-.28.13-.1.04-.29.11-.55.2-.26.09-.47.17-.63.23-.16.07-.3.14-.42.21-.12.08-.22.16-.31.25-.08.09-.14.18-.17.28-.03.09-.04.2-.03.3.02.17.08.31.19.43.11.11.25.19.4.23.16.04.34.05.55.03.13-.01.27-.03.42-.06.15-.03.34-.1.58-.19-.07.24-.15.59-.23,1.06-.29.07-.52.12-.69.14-.17.03-.33.04-.48.06-.52.04-.94.01-1.29-.09-.35-.1-.61-.3-.8-.58-.19-.28-.3-.58-.34-.88-.02-.17,0-.35.04-.53.04-.18.12-.34.23-.5.11-.15.25-.31.43-.46.18-.15.45-.31.81-.46.36-.16.84-.32,1.44-.5.16-.04.33-.1.5-.15.17-.06.31-.11.41-.17.1-.05.19-.11.26-.19.07-.08.13-.15.16-.23.03-.08.05-.16.04-.24,0-.16-.07-.29-.19-.39-.12-.1-.27-.17-.44-.2-.18-.03-.38-.04-.59-.02-.79.06-1.66.31-2.57.75Z"/>
      <path class="cls-7" d="m51.47,11.85c.04-.97.08-1.94.12-2.91,0-.56.01-1.12.02-1.69,0-.35,0-.69,0-1.04,0-.06,0-.25-.02-.58.41,0,.71,0,.91,0,.22,0,.52,0,.89-.02-.01.29-.02.57-.03.86.17-.22.31-.38.43-.49.12-.11.25-.2.4-.27.15-.08.31-.13.49-.17.18-.04.37-.05.56-.05.18,0,.36.03.54.07,0,.38,0,.86.02,1.44-.25-.07-.49-.11-.69-.11-.25,0-.48.03-.67.1-.19.07-.37.18-.52.32-.15.14-.28.32-.38.53-.08.17-.14.39-.18.67-.03.21-.06.57-.08,1.09-.02.51-.03,1.02-.03,1.52,0,.19,0,.43.02.72-.31,0-.6,0-.86,0-.26,0-.56.01-.91.03Z"/>
      <path class="cls-7" d="m56.38,11.88c.08-.61.15-1.12.19-1.53.07-.65.13-1.4.2-2.25.06-.85.12-1.66.16-2.42.43.02.75.04.96.05.2,0,.52.02.96.04-.1.7-.19,1.38-.26,2.02-.07.64-.14,1.38-.2,2.2-.06.83-.11,1.49-.14,1.97-.37-.03-.67-.05-.9-.06-.21,0-.54-.02-.97-.03Zm.62-7.26c.03-.42.06-.74.06-.96,0-.07,0-.13,0-.2.41.02.74.04,1,.06.35.02.68.03.98.04-.02.1-.04.22-.05.35-.03.27-.05.54-.08.81-.34-.03-.65-.05-.93-.06-.28-.01-.61-.03-.99-.03Z"/>
      <path class="cls-7" d="m59.69,12.06c.16-.92.32-1.95.47-3.09.15-1.14.27-2.17.35-3.08.4.04.73.07.97.09.29.03.59.05.91.07-.06.34-.12.68-.17,1.03.15-.16.28-.3.4-.39.11-.09.25-.18.43-.27.17-.08.35-.15.54-.19.19-.04.4-.07.63-.08.23-.01.47,0,.71.03.39.05.76.14,1.1.28.34.14.61.33.8.56.19.23.3.47.33.71.03.24.03.5-.01.76-.02.11-.05.28-.1.52-.18.87-.36,1.75-.53,2.62-.07.36-.14.75-.21,1.17-.32-.06-.6-.1-.82-.13-.31-.04-.62-.08-.94-.12.08-.35.2-.95.37-1.82.17-.87.27-1.44.31-1.72.04-.32.02-.58-.06-.79-.08-.21-.23-.38-.44-.51-.21-.13-.45-.21-.72-.24-.26-.03-.51-.01-.74.06-.23.07-.44.18-.62.35-.19.16-.35.38-.47.64-.13.27-.24.74-.35,1.38-.1.58-.21,1.35-.32,2.32-.32-.04-.6-.07-.85-.09-.26-.02-.57-.04-.94-.06Z"/>
      <path class="cls-7" d="m69.07,8.34c.11-.28.18-.47.22-.59.04-.11.09-.29.17-.52.61-.02,1.15-.02,1.61.02.46.04.9.1,1.33.19.48.1.9.25,1.28.44.37.19.65.43.82.7.17.28.2.62.1,1.04-.05.23-.23.79-.51,1.7-.29.91-.55,1.86-.8,2.84-.3-.08-.59-.15-.84-.21-.25-.06-.54-.12-.87-.18.16-.47.32-1.02.49-1.64.13-.49.27-.98.41-1.47-.18.06-.32.11-.41.13-.09.02-.19.04-.31.05-.11.01-.31.03-.58.04-.28.02-.5.04-.67.06-.17.02-.32.05-.46.09-.14.04-.26.1-.36.16-.1.07-.18.14-.24.22-.06.08-.09.18-.11.28-.03.17,0,.32.07.46.08.14.19.25.33.33.14.08.32.14.52.18.13.03.27.04.42.05.15.01.35,0,.62-.03-.13.21-.3.53-.51.96-.3-.01-.53-.03-.7-.05-.17-.02-.33-.05-.48-.07-.51-.1-.92-.24-1.22-.44-.31-.19-.51-.45-.62-.78-.11-.32-.14-.64-.09-.94.03-.17.09-.34.18-.5.09-.16.21-.3.35-.42.15-.12.33-.23.54-.32.22-.1.52-.17.91-.23.39-.05.9-.09,1.53-.09.17,0,.34,0,.52-.01.18-.01.33-.03.44-.05.11-.02.22-.06.31-.11.09-.05.16-.11.22-.18.05-.07.09-.14.1-.22.03-.16,0-.3-.08-.43-.09-.13-.21-.24-.38-.32-.16-.08-.35-.14-.56-.18-.78-.16-1.68-.15-2.69.03Z"/>
    </g>
  </g>
</svg>